# xmcd
#
# Track frame offsets:
#	150
#	13303
#	27375
#	41225
#	53776
#	66550
#	79209
#	92254
#	105440
#	117858
#	130756
#	143946
#	156984
#	169016
#	181061
#	192541
#	205822
#	218433
#
# Disc length: 3058 seconds
#
# Revision: 0
# Processed by: cddbd v1.4PL0 Copyright (c) Steve Scherf et al.
# Submitted via: EasyCDDAExtractor 5.0.5.1
#
DISCID=fc0bf012
DTITLE=Various Artist - Country Music - Hall Of Fame CD 3
DYEAR=1900
DGENRE=Country
TTITLE0=Life Just Gets Tee - Carson Robison
TTITLE1=I'll Never See Maggie Alone - Kenny Roberts
TTITLE2=The Hobo's Last Ride - Hank Snow
TTITLE3=Freight Train Boogie - The Delmore Brothers
TTITLE4=Rocky Rob Blues - Bill Monroe
TTITLE5=It Makes No Difference Now - Gene Autry
TTITLE6=You Are My Sunshine - Jimmie Davis
TTITLE7=Have You Ever Been Lonely - Ernest Tubb
TTITLE8=Tennessee Saturday Night - Red Foley
TTITLE9=Tumbling Tumbleweeds - Roy Rogers
TTITLE10=Great Speckled Bird - Roy Acuff
TTITLE11=Wine, Women and Song - Al Dexter
TTITLE12=Cigarettes, Whisky and Wild, Wild Women -Rod Ingle
TTITLE13=Sioux City Sue - Zeke Manners
TTITLE14=They Shook The Stars Out Of Heaven - Floyd Tilman
TTITLE15=Shame On You - Spade Cooley
TTITLE16=High Noon - Tex Ritter
TTITLE17=I'm Casting My Lassoo Tawards The Sky - Jimmy Wakeley
EXTD=
EXTT0=
EXTT1=
EXTT2=
EXTT3=
EXTT4=
EXTT5=
EXTT6=
EXTT7=
EXTT8=
EXTT9=
EXTT10=
EXTT11=
EXTT12=
EXTT13=
EXTT14=
EXTT15=
EXTT16=
EXTT17=
PLAYORDER=
